<?xml version="1.0" encoding="UTF-8" standalone="no"?>
<!-- Created with Inkscape (http://www.inkscape.org/) -->
<svg
   xmlns:dc="http://purl.org/dc/elements/1.1/"
   xmlns:cc="http://creativecommons.org/ns#"
   xmlns:rdf="http://www.w3.org/1999/02/22-rdf-syntax-ns#"
   xmlns:svg="http://www.w3.org/2000/svg"
   xmlns="http://www.w3.org/2000/svg"
   xmlns:sodipodi="http://sodipodi.sourceforge.net/DTD/sodipodi-0.dtd"
   xmlns:inkscape="http://www.inkscape.org/namespaces/inkscape"
   width="603"
   height="453"
   id="svg2"
   sodipodi:version="0.32"
   inkscape:version="0.46"
   version="1.0"
   sodipodi:docname="Troll Face.svg"
   inkscape:output_extension="org.inkscape.output.svg.inkscape"
   inkscape:export-filename="C:\Documents and Settings\noquierouser\Escritorio\Troll Face.png"
   inkscape:export-xdpi="90"
   inkscape:export-ydpi="90">
  <defs
     id="defs4">
    <inkscape:perspective
       sodipodi:type="inkscape:persp3d"
       inkscape:vp_x="0 : 526.18109 : 1"
       inkscape:vp_y="0 : 1000 : 0"
       inkscape:vp_z="744.09448 : 526.18109 : 1"
       inkscape:persp3d-origin="372.04724 : 350.78739 : 1"
       id="perspective10" />
    <inkscape:perspective
       id="perspective2447"
       inkscape:persp3d-origin="372.04724 : 350.78739 : 1"
       inkscape:vp_z="744.09448 : 526.18109 : 1"
       inkscape:vp_y="0 : 1000 : 0"
       inkscape:vp_x="0 : 526.18109 : 1"
       sodipodi:type="inkscape:persp3d" />
  </defs>
  <sodipodi:namedview
     id="base"
     pagecolor="#ffffff"
     bordercolor="#666666"
     borderopacity="1.0"
     inkscape:pageopacity="0.0"
     inkscape:pageshadow="2"
     inkscape:zoom="0.90509668"
     inkscape:cx="250.24925"
     inkscape:cy="296.20865"
     inkscape:document-units="px"
     inkscape:current-layer="layer2"
     showgrid="false"
     inkscape:window-width="1280"
     inkscape:window-height="945"
     inkscape:window-x="-4"
     inkscape:window-y="24" />
  <metadata
     id="metadata7">
    <rdf:RDF>
      <cc:Work
         rdf:about="">
        <dc:format>image/svg+xml</dc:format>
        <dc:type
           rdf:resource="http://purl.org/dc/dcmitype/StillImage" />
      </cc:Work>
    </rdf:RDF>
  </metadata>
  <g
     inkscape:label="Capa 1"
     inkscape:groupmode="layer"
     id="layer1"
     style="display:inline" />
  <g
     inkscape:groupmode="layer"
     id="layer2"
     inkscape:label="Troll editable"
     style="display:inline">
    <path
       style="fill:none;fill-rule:evenodd;stroke:#000000;stroke-width:8;stroke-linecap:round;stroke-linejoin:miter;stroke-miterlimit:4;stroke-dasharray:none;stroke-opacity:1"
       d="M 286.75705,216.6243 C 284.87487,210.40547 302.44507,209.86905 305.22272,213.7983 C 306.76023,215.97325 309.79687,214.8572 313.08415,214.85654"
       id="path3191"
       sodipodi:nodetypes="csc" />
    <path
       style="fill:none;fill-rule:evenodd;stroke:#000000;stroke-width:8;stroke-linecap:butt;stroke-linejoin:miter;stroke-miterlimit:4;stroke-dasharray:none;stroke-opacity:1"
       d="M 161.62441,54.49482 C 161.68714,54.764845 126.60551,73.110441 114.65231,101.46691 C 102.763,129.67182 95.749662,136.12056 86.368043,142.37809 C 76.986424,148.63562 57.443453,165.86414 55.675686,182.27912 C 53.90482,198.72288 53.285547,215.36161 71.720831,233.7969 C 71.720831,233.7969 94.877289,254.66782 103.98443,274.1671 C 103.98443,274.1671 110.10663,291.12305 128.03683,307.79057 C 128.03683,307.79057 146.49073,325.4253 179.81646,344.11312 C 179.81646,344.11312 264.66725,387.70076 283.60033,392.89592 C 283.60033,392.89592 296.87794,396.32774 302.71168,397.09366 C 323.99805,399.88838 350.89891,415.45567 375.27167,415.62436 C 375.27167,415.62436 432.34529,419.15988 452.04326,409.56344 C 452.04326,409.56344 486.89353,385.82486 486.38845,365.11673 C 486.38845,365.11673 489.1102,346.7823 482.85292,323.1954 C 482.85292,323.1954 478.56648,303.18401 479.3683,278.75141 C 480.06239,257.60168 482.2957,234.78224 499.52044,210.05831 C 499.52044,210.05831 520.98617,173.94536 498.51028,153.99485 C 498.51028,153.99485 473.89688,137.6608 471.74124,124.19535 C 470.50621,115.10398 476.76309,109.04305 464.16509,95.658537 C 464.16509,95.658537 435.68588,64.281656 382.34274,59.545583 C 328.29958,54.747358 324.0354,51.928142 296.98485,50.45421 C 269.9343,48.980278 183.7902,42.900135 161.62441,54.49482 z"
       id="path2454"
       sodipodi:nodetypes="czzzcccccsccccscccsszc" />
    <path
       style="fill:none;fill-rule:evenodd;stroke:#000000;stroke-width:8;stroke-linecap:round;stroke-linejoin:miter;stroke-miterlimit:4;stroke-dasharray:none;stroke-opacity:1"
       d="M 101.01526,218.64461 C 101.01526,218.64461 84.103342,195.89089 103.03556,170.9149 C 116.0799,153.70638 141.52228,157.81883 153.54318,165.6116 C 165.80416,173.56001 179.78907,177.97204 193.69676,178.2385 C 201.54614,178.38889 215.41503,175.20805 229.05209,160.05576"
       id="path3246"
       sodipodi:nodetypes="cssss" />
    <path
       style="fill:none;fill-rule:evenodd;stroke:#000000;stroke-width:8;stroke-linecap:round;stroke-linejoin:miter;stroke-miterlimit:4;stroke-dasharray:none;stroke-opacity:1"
       d="M 399.01026,180.25881 C 399.01026,180.25881 410.15831,189.69383 423.55445,184.99512 C 423.55445,184.99512 420.95406,174.8056 438.40621,172.43013 C 457.79862,169.79057 458.81801,173.31313 464.41763,177.98597"
       id="path3248"
       sodipodi:nodetypes="ccsc" />
    <path
       style="fill:none;fill-rule:evenodd;stroke:#000000;stroke-width:3;stroke-linecap:round;stroke-linejoin:miter;stroke-miterlimit:4;stroke-dasharray:none;stroke-opacity:1"
       d="M 178.92857,121.92857 C 178.92857,121.92857 201.23853,93.787957 228.03571,92.285714 C 248.53985,91.143866 226.47944,88.00742 261.60714,89.428571 C 267.51175,89.668673 279.64285,88.714285 287.32143,92.464285"
       id="path3250"
       sodipodi:nodetypes="cssc" />
    <path
       style="fill:none;fill-rule:evenodd;stroke:#000000;stroke-width:3;stroke-linecap:round;stroke-linejoin:miter;stroke-miterlimit:4;stroke-dasharray:none;stroke-opacity:1"
       d="M 307.85714,346.92857 L 382.5,346.92857"
       id="path2386" />
    <path
       style="fill:none;fill-rule:evenodd;stroke:#000000;stroke-width:3;stroke-linecap:round;stroke-linejoin:miter;stroke-miterlimit:4;stroke-dasharray:none;stroke-opacity:1"
       d="M 176.07143,310.5 C 176.07143,310.5 180.81205,310.66744 188.48465,315.29648 C 211.30766,329.06606 266.20001,352.84773 300.11862,358.48588 C 308.45903,359.85745 337.52441,357.45881 347.31677,360.37749 C 350.13172,362.03739 388.83025,362.63614 398.09594,360.66224 C 426.97714,354.50956 432.21248,345.25771 437.85714,337.28572"
       id="path3158"
       sodipodi:nodetypes="csccsc" />
    <path
       style="fill:none;fill-rule:evenodd;stroke:#000000;stroke-width:3;stroke-linecap:round;stroke-linejoin:miter;stroke-miterlimit:4;stroke-dasharray:none;stroke-opacity:1"
       d="M 152.78557,310.56849 C 152.78557,310.56849 207.63985,344.21866 246.72976,354.38386 C 270.97561,360.68892 293.65485,366.22268 309.3846,368.22115 C 322.86519,369.93386 322.93012,371.35336 333.53499,372.2565 C 347.26845,373.42609 352.54546,372.88627 361.97644,374.41963 C 372.21829,376.08484 424.5368,377.14983 428.30468,375.21825 C 432.00168,373.32301 430.54589,372.81146 434.42552,370.99997 C 438.10384,369.28248 437.67824,370.23499 439.83842,367.56911 C 441.01443,366.11781 443.75068,365.26018 446.43007,364.08764 C 451.21496,361.9937 449.70638,360.82874 454.03689,358.7602 C 458.71569,356.5253 460.09274,357.72302 459.49314,342.32516"
       id="path3160"
       sodipodi:nodetypes="csssszssssc" />
    <path
       style="fill:none;fill-rule:evenodd;stroke:#000000;stroke-width:3;stroke-linecap:round;stroke-linejoin:miter;stroke-miterlimit:4;stroke-dasharray:none;stroke-opacity:1"
       d="M 126.52161,141.49421 C 119.37566,143.93789 100.9583,139.27995 92.571055,144.64646 C 90.528361,145.95346 85.62407,146.6792 82.201163,148.69155"
       id="path3162"
       sodipodi:nodetypes="csc" />
    <path
       style="fill:none;fill-rule:evenodd;stroke:#000000;stroke-width:3;stroke-linecap:round;stroke-linejoin:miter;stroke-miterlimit:4;stroke-dasharray:none;stroke-opacity:1"
       d="M 135.53571,146.75 C 135.53571,146.75 102.84914,144.78635 99.340439,148.41688 C 97.703986,150.11016 94.516057,149.01947 92.640793,150.28963 C 89.077791,152.70293 88.966054,152.41595 87.640849,155.50401 C 87.1174,156.72378 83.341482,158.8621 82.756063,162.26006 C 82.076885,166.20223 79.047568,166.10367 77.616658,168.46981 C 75.639457,171.73929 74.676751,205.07376 77.213536,208.92189 C 79.702204,212.69702 78.044182,216.46841 79.486378,218.01326 C 80.959767,219.59152 81.322409,222.92694 84.103479,225.51995 C 85.854947,227.15299 86.850908,228.12186 89.245621,228.62332 C 91.951308,229.1899 93.438744,231.2478 96.974644,232.21854 C 100.4518,233.17315 102.0254,232.02913 103.54064,234.93332"
       id="path3164"
       sodipodi:nodetypes="cssssszzsszz" />
    <path
       style="fill:none;fill-rule:evenodd;stroke:#000000;stroke-width:3;stroke-linecap:round;stroke-linejoin:miter;stroke-miterlimit:4;stroke-dasharray:none;stroke-opacity:1"
       d="M 276.65553,94.648385 C 276.65553,94.648385 282.69858,96.566897 285.3863,103.9795 C 287.22301,109.04504 289.07471,105.13263 288.39855,120.65981"
       id="path3166"
       sodipodi:nodetypes="csc" />
    <path
       style="fill:none;fill-rule:evenodd;stroke:#000000;stroke-width:3;stroke-linecap:round;stroke-linejoin:miter;stroke-miterlimit:4;stroke-dasharray:none;stroke-opacity:1"
       d="M 350.14412,134.54941 C 350.14412,134.54941 348.58332,119.21709 351.85797,115.69918 C 353.91663,113.4876 352.56103,109.89284 356.96265,108.91679"
       id="path3168"
       sodipodi:nodetypes="csc" />
    <path
       style="fill:none;fill-rule:evenodd;stroke:#000000;stroke-width:3;stroke-linecap:round;stroke-linejoin:miter;stroke-miterlimit:4;stroke-dasharray:none;stroke-opacity:1"
       d="M 174.01786,141.92857 C 174.01786,141.80986 167.72458,141.88545 166.5771,143.51962 C 164.82105,146.0205 162.78931,144.12635 154.64286,145.76786"
       id="path3170"
       sodipodi:nodetypes="csc" />
    <path
       style="fill:none;fill-rule:evenodd;stroke:#000000;stroke-width:3;stroke-linecap:round;stroke-linejoin:miter;stroke-miterlimit:4;stroke-dasharray:none;stroke-opacity:1"
       d="M 169.46429,148.98214 C 169.46429,148.98214 167.70607,148.9279 164.46414,149.21114 C 161.75651,149.4477 159.7445,149.82979 158.30357,145.32143"
       id="path3172"
       sodipodi:nodetypes="csc" />
    <path
       style="fill:none;fill-rule:evenodd;stroke:#000000;stroke-width:3;stroke-linecap:round;stroke-linejoin:miter;stroke-miterlimit:4;stroke-dasharray:none;stroke-opacity:1"
       d="M 169.28571,155.94643 C 170.15703,153.95696 171.29432,154.57885 173.39286,154.07143"
       id="path3174"
       sodipodi:nodetypes="cc" />
    <path
       style="fill:none;fill-rule:evenodd;stroke:#000000;stroke-width:3;stroke-linecap:round;stroke-linejoin:miter;stroke-miterlimit:4;stroke-dasharray:none;stroke-opacity:1"
       d="M 96.21703,244.27723 C 92.019101,238.8166 90.284263,244.65791 79.170706,238.09004"
       id="path3176"
       sodipodi:nodetypes="cc" />
    <path
       style="fill:none;fill-rule:evenodd;stroke:#000000;stroke-width:3;stroke-linecap:round;stroke-linejoin:miter;stroke-miterlimit:4;stroke-dasharray:none;stroke-opacity:1"
       d="M 345.71429,101.57143 C 345.54516,98.585511 351.77967,100.6944 354.74689,98.398215 C 359.00508,95.103011 371.51477,98.51754 376.83226,95.306977 C 379.70822,93.570545 386.63725,94.351056 390.72117,94.628882 C 400.21926,95.27503 415.60054,102.841 420.83352,110.72015 C 421.63618,111.92869 421.19666,113.926 422.20117,115.1908 C 423.85671,117.27533 424.12361,120.1018 423.75,122.82143"
       id="path3178"
       sodipodi:nodetypes="csssssc" />
    <path
       style="fill:none;fill-rule:evenodd;stroke:#000000;stroke-width:3;stroke-linecap:round;stroke-linejoin:miter;stroke-miterlimit:4;stroke-dasharray:none;stroke-opacity:1"
       d="M 165.15994,118.38697 C 179.55131,102.48337 182.93703,99.784806 197.28935,92.709069 C 201.40759,90.67877 203.32632,88.126957 208.29287,87.569992 C 211.38177,87.223593 212.74274,85.038101 214.48406,84.993557 C 218.20148,84.898462 216.50397,82.737879 222.48687,82.681015 C 225.01449,82.657345 226.65199,80.703413 230.73053,80.366458 C 235.72471,79.953856 234.96882,78.304218 244.31116,77.802297 C 253.56448,77.305158 252.33777,76.10696 256.0597,75.778784 C 265.44784,74.950999 289.17965,74.906218 290.85418,76.959294 C 292.42531,78.885595 297.87495,77.880944 300.51295,78.322691 C 303.06405,78.749888 302.00766,80.389881 305.90745,80.620226 C 309.81147,80.850822 314.44099,80.030229 316.99312,82.382387 C 318.30295,83.589589 339.30788,83.082234 345.88961,83.191951 C 359.50293,83.418883 364.69626,83.779696 372.32039,82.884214 C 375.31193,82.532846 372.92174,80.630157 378.7026,80.447602 C 378.7026,80.447602 386.79717,80.259832 397.84159,80.297826 C 400.15349,80.30578 399.897,78.235109 402.55562,77.86656 C 405.20274,77.499605 409.40538,77.136953 412.08222,78.900892 C 413.85296,80.067747 413.14473,80.820846 414.73754,82.274822 C 415.11185,82.616509 416.95424,82.713597 417.74929,83.293527 C 418.52206,83.857213 417.97337,84.281662 419.05006,85.054564"
       id="path3180"
       sodipodi:nodetypes="cssssszsszzssscsssssc" />
    <path
       style="fill:none;fill-rule:evenodd;stroke:#000000;stroke-width:3;stroke-linecap:round;stroke-linejoin:miter;stroke-miterlimit:4;stroke-dasharray:none;stroke-opacity:1"
       d="M 152.40676,107.90664 C 156.71529,101.16138 161.39785,101.05773 167.24031,97.066753 C 185.29088,84.736453 214.47959,63.542869 255.32631,61.719917 C 259.87371,61.51697 269.17125,60.535126 288.23853,61.553489 C 291.67832,61.737205 289.00173,63.56603 293.57917,63.632637 C 297.5109,63.689849 302.5018,63.77158 306.72027,63.814715 C 309.52678,63.843412 308.06053,66.14535 311.02821,66.048476 C 317.61324,65.833519 322.52527,66.018921 329.31143,65.92727 C 331.20695,65.899965 331.45543,68.456499 333.35341,68.50161 C 344.98011,68.774953 363.92361,68.928826 379.43611,68.329475 C 382.83993,68.197963 381.22161,65.465795 383.7247,65.221001 C 393.15248,64.298993 401.10686,65.363172 401.2831,65.353961"
       id="path3182"
       sodipodi:nodetypes="cssssssssssc" />
    <path
       style="fill:none;fill-rule:evenodd;stroke:#000000;stroke-width:3;stroke-linecap:round;stroke-linejoin:miter;stroke-miterlimit:4;stroke-dasharray:none;stroke-opacity:1"
       d="M 429.69364,146.67125 C 432.56116,143.57718 436.97682,145.05277 440.88881,147.52828 C 442.84754,148.76776 442.22164,149.06158 443.56785,149.76551 C 444.9199,150.47249 444.92101,147.79257 446.03728,147.11624 C 447.93059,145.9691 466.03841,146.28181 468.4358,147.28932 C 473.43381,149.38975 473.10613,156.20165 482.17742,159.04595 C 484.45896,159.76132 482.57482,160.53341 487.27099,161.74209 C 488.76369,162.12627 490.45293,165.62263 490.74627,169.04408 C 490.90031,170.84077 492.47283,173.32723 494.18355,174.4636 C 495.88728,175.59531 495.60293,184.69486 494.80475,189.10416 C 494.5357,190.59046 493.18235,190.15428 492.86785,191.0356 C 491.64705,194.45661 493.59932,199.42718 491.70518,201.6796 C 489.86528,203.8675 490.7065,207.28496 489.2854,208.4079 C 487.54126,209.78611 486.78557,211.75965 484.83468,212.81804 C 481.84486,214.44007 478.87326,214.67681 475.88265,215.90957 C 473.06646,217.07043 470.20482,219.25037 468.19345,220.0354 C 465.36439,221.13957 464.72996,220.6129 464.29136,222.43268"
       id="path2410"
       sodipodi:nodetypes="csssssssssssssssc" />
    <path
       style="fill:none;fill-rule:evenodd;stroke:#000000;stroke-width:3;stroke-linecap:round;stroke-linejoin:miter;stroke-miterlimit:4;stroke-dasharray:none;stroke-opacity:1"
       d="M 462.14286,159.16071 C 462.28275,160.20617 461.80161,160.8711 462.85844,161.09382 C 467.35796,162.04207 467.56901,160.4313 469.43611,163.0321 C 470.26816,164.19112 471.50226,163.3681 472.86108,164.1792 C 475.19746,165.57383 477.63084,168.20503 478.4613,170.06057 C 479.9093,173.29593 477.56058,179.90486 478.48946,183.86049 C 479.02433,186.13825 480.86755,185.38208 480.97457,186.96832 C 481.35184,192.56044 481.4934,195.76757 479.35541,197.41805 C 474.56182,201.11858 471.86801,206.89184 467.41072,206.30357"
       id="path3183"
       sodipodi:nodetypes="csssssssc" />
    <path
       style="fill:none;fill-rule:evenodd;stroke:#000000;stroke-width:3;stroke-linecap:round;stroke-linejoin:miter;stroke-miterlimit:4;stroke-dasharray:none;stroke-opacity:1"
       d="M 410.50322,220.58294 C 408.2417,217.89951 406.88399,218.73463 404.67538,217.22457 C 403.30274,216.28608 402.88934,215.02091 401.42986,214.17276 C 399.30375,212.93721 396.12293,214.59616 393.75938,213.52903 C 392.7713,213.08293 392.84085,212.09853 391.92015,211.45972 C 390.83379,210.70598 389.66263,211.22943 388.34059,210.41746 C 387.11362,209.66387 387.47518,209.3374 386.20602,208.35596 C 384.14911,206.76536 384.70901,207.13306 382.47494,206.81871"
       id="path3185"
       sodipodi:nodetypes="cssssssc" />
    <path
       style="fill:none;fill-rule:evenodd;stroke:#000000;stroke-width:3;stroke-linecap:round;stroke-linejoin:miter;stroke-miterlimit:4;stroke-dasharray:none;stroke-opacity:1"
       d="M 218.92857,204.07143 C 219.06352,200.65396 222.04397,201.15263 228.74505,201.37645 C 233.06593,201.52077 245.63652,201.60179 249.49081,201.77093 C 254.02666,201.97389 250.87674,199.87138 253.83136,199.30754 C 258.3308,198.44889 258.38135,192.23276 255.08929,192.19643"
       id="path3187"
       sodipodi:nodetypes="csssc" />
    <path
       style="fill:none;fill-rule:evenodd;stroke:#000000;stroke-width:8;stroke-linecap:round;stroke-linejoin:miter;stroke-miterlimit:4;stroke-dasharray:none;stroke-opacity:1"
       d="M 272.67806,220.79118 C 265.0835,219.26252 265.15235,213.13833 265.25654,209.36812 C 265.38598,204.68424 264.84414,199.17759 268.28695,198.31903 C 269.92333,197.91096 269.9508,199.13244 272.25205,197.79403 C 276.25847,194.32103 278.34089,196.21049 286.75705,195.85305"
       id="path3189"
       sodipodi:nodetypes="csscc" />
    <path
       style="fill:none;fill-rule:evenodd;stroke:#000000;stroke-width:8;stroke-linecap:round;stroke-linejoin:miter;stroke-miterlimit:4;stroke-dasharray:none;stroke-opacity:1"
       d="M 379.89133,212.9102 C 379.49257,210.83855 380.4977,207.80258 380.55601,206.64132 C 380.76062,202.5219 377.08533,201.57953 372.40075,201.97075"
       id="path3193"
       sodipodi:nodetypes="csc" />
    <path
       style="fill:none;fill-rule:evenodd;stroke:#000000;stroke-width:8;stroke-linecap:round;stroke-linejoin:miter;stroke-miterlimit:4;stroke-dasharray:none;stroke-opacity:1"
       d="M 334.47698,227.47326 C 339.6593,233.66951 344.77266,233.19724 351.52626,229.62607 C 357.96437,226.22172 363.88823,219.91628 365.03005,213.79992 C 366.00645,208.56967 371.15884,205.83185 371.13061,203.64302 C 371.07935,199.66898 369.48426,197.45496 366.19316,194.60067 C 363.20875,192.01237 359.68856,193.25787 356.26628,190.1511 C 353.08717,187.26508 352.4417,186.76778 349.71698,182.73117 C 346.78892,178.39331 351.18281,166.29018 347.44689,160.97702 C 343.67272,155.60947 339.69919,157.68597 334.21175,153.23985"
       id="path3195"
       sodipodi:nodetypes="csssssssc" />
    <path
       style="fill:none;fill-rule:evenodd;stroke:#000000;stroke-width:8;stroke-linecap:round;stroke-linejoin:round;stroke-miterlimit:4;stroke-dasharray:none;stroke-opacity:1"
       d="M 291.80782,149.82797 C 291.80782,149.82797 289.76282,147.8064 286.38237,144.25531 C 284.92511,142.72449 283.7337,140.087 281.50114,138.56442 C 280.1247,137.62571 277.82616,137.27541 276.10713,136.26726 C 275.13743,135.69857 273.75445,133.8023 271.28584,132.53622 C 268.73193,131.2264 266.34978,131.17802 265.1269,130.63535 C 263.51905,129.92184 263.1918,128.50057 261.36183,127.90436 C 259.23351,127.21094 256.84987,126.97732 254.4603,126.47133 C 250.94686,125.72736 251.46675,123.45593 247.10857,123.18519 C 240.31921,122.76343 227.32277,120.70356 224.88068,123.06679 C 221.33187,126.50099 215.79405,124.70361 211.71771,125.38668 C 208.5202,125.92248 208.58606,128.41259 205.72241,128.49606 C 203.40771,128.56353 202.27272,130.70723 200.56233,131.54542 C 197.94706,132.82705 196.25083,131.79474 194.26093,133.36591 C 188.26457,138.10049 183.97404,146.54497 183.97404,146.54497 C 186.34251,146.64453 187.20465,148.40404 188.38994,149.29044 C 189.87955,150.40442 191.44057,150.79785 192.18153,152.22708 C 195.30331,151.43363 195.18429,149.71153 198.9705,148.46721 C 201.65598,147.58463 203.09773,148.41871 206.11378,147.58758 C 216.74841,144.65699 236.16062,143.44061 253.32023,148.19169 C 256.99235,149.2084 259.74598,152.74569 263.51604,155.14135 C 265.88565,156.6471 268.3109,156.86509 271.06313,158.23262 C 273.42678,159.40709 275.08773,160.05302 277.41315,161.69726 C 285.18131,154.27039 284.76638,156.94734 287.43127,155.00505 C 290.51403,152.7582 291.80782,149.82797 291.80782,149.82797 z"
       id="path3197"
       sodipodi:nodetypes="cssssssssssssscscssssscsc" />
    <path
       style="fill:#000000;fill-opacity:1;fill-rule:evenodd;stroke:#000000;stroke-width:1px;stroke-linecap:butt;stroke-linejoin:miter;stroke-opacity:1"
       d="M 204.42962,129.01907 C 204.42962,129.01907 202.98101,148.37519 226.63687,147.30226 C 250.41874,146.22362 245.91512,124.20139 245.91512,124.20139 C 232.2485,123.70283 218.45248,124.88647 204.42962,129.01907 z"
       id="path3201"
       sodipodi:nodetypes="czcc" />
    <path
       style="fill:none;fill-rule:evenodd;stroke:#000000;stroke-width:8;stroke-linecap:round;stroke-linejoin:round;stroke-miterlimit:4;stroke-dasharray:none;stroke-opacity:1"
       d="M 418.96077,143.89332 C 414.24896,141.13936 409.65367,136.53151 407.349,136.25193 C 401.08001,135.49144 394.32203,133.79684 380.95378,134.54941 C 377.47608,134.74519 377.11073,135.43002 373.8574,136.69691 C 371.95797,137.43656 368.44388,137.0257 366.70739,138.34925 C 364.00763,140.40699 358.79726,140.82768 356.9194,143.04919 C 351.22064,149.7908 349.1421,153.52699 345.85098,159.04561 C 351.0766,159.8991 348.94412,160.06663 355.51927,159.50397 C 360.38731,159.08739 359.17032,156.59278 366.91979,155.9609 C 369.16693,155.77767 369.97636,153.52225 373.61797,152.9338 C 377.57479,152.29441 386.05455,153.35406 386.98402,151.46067 C 387.82334,149.75094 406.26201,151.04279 409.38455,149.89301 C 416.09394,147.42246 416.23033,147.91228 418.96077,143.89332 z"
       id="path3211"
       sodipodi:nodetypes="cssssscsssssc" />
    <path
       style="fill:#000000;fill-opacity:1;fill-rule:evenodd;stroke:#000000;stroke-width:1px;stroke-linecap:butt;stroke-linejoin:miter;stroke-opacity:1"
       d="M 383.35289,133.66553 C 370.33831,136.67849 354.9808,141.72145 348.25009,153.99485 C 349.54978,160.24355 355.9273,159.41575 368.32687,157.27784 C 380.84905,155.1188 387.57374,143.85599 383.35289,133.66553 z"
       id="path3221"
       sodipodi:nodetypes="cczc" />
    <path
       style="fill:none;fill-rule:evenodd;stroke:#000000;stroke-width:8;stroke-linecap:round;stroke-linejoin:miter;stroke-miterlimit:4;stroke-dasharray:none;stroke-opacity:1"
       d="M 136.96428,176.75 C 136.95016,184.06931 135.35389,182.18874 134.91151,185.23416 C 134.63662,187.1266 134.36528,190.92646 133.58275,192.26681 C 131.93979,195.08093 129.09395,194.87153 127.233,196.64628 C 124.6099,199.14789 122.00002,198.77046 119.82132,201.36092 C 117.86306,203.68928 114.69823,203.63035 110.71429,202.64285"
       id="path3231"
       sodipodi:nodetypes="cssssc" />
    <path
       style="fill:none;fill-rule:evenodd;stroke:#000000;stroke-width:8;stroke-linecap:round;stroke-linejoin:round;stroke-miterlimit:4;stroke-dasharray:none;stroke-opacity:1"
       d="M 133.84521,186.8248 C 144.58805,185.32815 308.37463,287.08219 424.35126,230.9213 C 429.61122,228.3742 428.53579,223.8514 433.91981,220.69501 C 438.14182,218.21985 442.19346,201.30068 442.73896,190.36405 C 444.94874,198.6289 444.39529,202.63654 446.06017,210.22575 C 447.72227,217.80226 450.218,215.40438 451.37401,222.29553 C 458.38398,264.0831 453.38536,307.85957 433.86052,318.64971 C 373.61451,337.99123 302.96815,335.24812 260.73852,324.2263 C 182.06791,303.69349 149.69794,242.60408 130.54286,201.71898 C 128.02351,196.3416 131.22654,192.09937 133.84521,186.8248 z"
       id="path3233"
       sodipodi:nodetypes="csscsscssc" />
    <path
       style="fill:#000000;fill-opacity:1;fill-rule:evenodd;stroke:#000000;stroke-width:8;stroke-linecap:round;stroke-linejoin:round;stroke-miterlimit:4;stroke-dasharray:none;stroke-opacity:1"
       d="M 133.06965,221.61379 C 134.03349,221.70141 143.31127,222.45514 158.80622,229.56253 C 173.76273,236.42294 196.50925,250.71889 215.06713,250.91666 C 225.88424,251.03194 262.65135,266.56446 273.23994,268.58607 C 307.65228,275.15618 433.97577,280.83257 454.56865,245.41365 C 455.04083,249.59259 457.00718,275.69422 441.13553,286.26355 C 416.14039,295.45778 398.41268,295.72846 338.22003,293.17912 C 313.31786,292.12444 289.06443,286.63571 264.32962,276.58311 C 251.39811,271.32755 233.18542,269.14439 223.70341,264.33579 C 194.17815,249.36269 169.79061,240.04182 133.06965,221.61379 z"
       id="path3235"
       sodipodi:nodetypes="csssccsssc" />
    <path
       style="fill:#000000;fill-opacity:1;fill-rule:evenodd;stroke:#000000;stroke-width:1px;stroke-linecap:round;stroke-linejoin:miter;stroke-opacity:1"
       d="M 185.58855,206.28799 C 182.80969,215.2705 181.04114,226.44297 185.58855,240.05377 L 207.31584,246.73868 C 198.99778,238.52806 185.95614,230.5919 193.09765,212.8003 L 185.58855,206.28799 z"
       id="path3186"
       sodipodi:nodetypes="ccccc" />
    <path
       style="fill:#000000;fill-opacity:1;fill-rule:evenodd;stroke:#000000;stroke-width:1px;stroke-linecap:butt;stroke-linejoin:miter;stroke-opacity:1"
       d="M 176.96226,270.6155 C 183.0009,270.12469 187.83255,265.81803 182.52147,252.98874 C 181.83761,251.33683 182.9399,249.06758 182.3845,246.95481 L 193.47545,251.88411 C 193.89833,258.69946 194.9483,266.69859 193.37619,270.76624 C 191.78261,274.88947 187.54905,275.05443 185.34209,278.00947 L 176.96226,270.6155 z"
       id="path3188"
       sodipodi:nodetypes="csccscc" />
    <path
       style="fill:#000000;fill-opacity:1;fill-rule:evenodd;stroke:#000000;stroke-width:1px;stroke-linecap:butt;stroke-linejoin:miter;stroke-opacity:1"
       d="M 245.47969,256.99828 C 246.76394,255.70627 246.19741,254.03541 247.55639,253.8219 C 249.77011,253.47409 249.3508,247.4496 249.24327,242.58476 C 249.18058,239.7482 252.23776,245.28625 252.07264,234.07698 L 261.21484,238.04547 C 260.20442,240.46999 260.95631,243.2496 260.18342,244.78168 C 259.7816,245.57818 257.69149,244.76844 257.53316,246.22184 C 256.83677,252.61444 260.46625,257.20568 253.09843,259.71567 L 245.47969,256.99828 z"
       id="path3190"
       sodipodi:nodetypes="cssccsscc" />
    <path
       style="fill:#000000;fill-opacity:1;fill-rule:evenodd;stroke:#000000;stroke-width:1px;stroke-linecap:butt;stroke-linejoin:miter;stroke-opacity:1"
       d="M 305.55566,248.24875 C 305.55566,248.24875 307.64608,250.05683 308.26678,251.51442 C 308.88749,252.972 308.6681,269.42316 308.32839,269.8761 L 319.17288,270.6155 C 319.17288,270.6155 317.90519,272.17704 317.57085,268.82862 C 317.23718,265.48685 317.44762,248.49522 317.44762,248.49522 L 305.55566,248.24875 z"
       id="path3192"
       sodipodi:nodetypes="czcczcc" />
    <path
       style="fill:#000000;fill-opacity:1;fill-rule:evenodd;stroke:#000000;stroke-width:1px;stroke-linecap:butt;stroke-linejoin:miter;stroke-opacity:1"
       d="M 348.31743,251.0831 C 349.18574,253.13175 348.47504,258.44111 350.41038,259.72878 C 352.56081,261.15956 351.61154,268.49414 350.65885,271.17005 L 360.51747,270.73873 C 360.11955,266.58222 361.76572,256.463 359.8873,256.22816 C 357.90101,255.97983 357.81982,254.1778 358.85383,250.65179 L 348.31743,251.0831 z"
       id="path3194"
       sodipodi:nodetypes="csccscc" />
    <path
       style="fill:#000000;fill-opacity:1;fill-rule:evenodd;stroke:#000000;stroke-width:1px;stroke-linecap:butt;stroke-linejoin:miter;stroke-opacity:1"
       d="M 394.09841,244.49015 C 393.08831,257.18542 394.63323,256.97937 396.81119,258.04303 C 397.95622,258.60224 397.21718,261.11897 397.37707,263.86214 C 397.48016,265.63089 399.51883,263.37587 399.02772,267.65791 L 405.92875,266.30235 C 409.01236,260.12842 407.54222,258.55004 405.60349,256.98412 C 404.98714,256.48629 405.50054,255.21366 405.13144,254.0836 C 404.70805,252.7873 402.75561,253.25894 402.79776,251.65149 C 402.88125,248.46773 403.20538,245.11036 402.47823,242.64166 L 394.09841,244.49015 z"
       id="path3196"
       sodipodi:nodetypes="cssccssscc" />
    <path
       style="fill:#000000;fill-opacity:1;fill-rule:evenodd;stroke:#000000;stroke-width:1px;stroke-linecap:butt;stroke-linejoin:miter;stroke-opacity:1"
       d="M 420.22375,235.24769 C 420.15725,237.30458 419.70864,242.77658 421.39273,242.56753 C 423.77443,242.27188 424.06602,257.97385 421.46627,258.23156 C 419.94009,258.38285 420.64564,262.18066 420.34698,263.34477 L 430.69854,259.89424 C 432.19643,257.00921 433.19082,241.32413 430.30095,238.29615 C 428.90394,236.83236 430.15148,232.34809 429.46621,230.68808 L 420.22375,235.24769 z"
       id="path3198"
       sodipodi:nodetypes="cssccscc" />
    <path
       style="fill:#000000;fill-opacity:1;fill-rule:evenodd;stroke:#000000;stroke-width:1px;stroke-linecap:butt;stroke-linejoin:miter;stroke-opacity:1"
       d="M 441.29655,254.22554 C 441.29562,253.06739 441.89045,250.51772 441.69517,249.27144 C 441.41337,247.47296 440.28655,247.0548 440.07279,246.2443 C 439.55196,244.26959 440.17904,243.96623 439.65841,241.02594 C 439.52753,240.2868 437.748,240.77281 437.80474,239.10566 C 437.95494,234.69313 436.16748,234.22885 435.81862,232.40086 C 435.08479,228.55564 433.04026,228.69671 432.0541,227.11433 L 440.18746,218.24157 C 439.93864,222.60935 440.64136,223.11851 442.98402,225.39756 C 443.99527,226.38135 445.12043,230.05584 445.15775,232.43535 C 445.23872,237.59911 449.19253,238.30128 451.40164,242.0255 C 451.32554,249.55939 444.32148,250.82001 441.29655,254.22554 z"
       id="path3200"
       sodipodi:nodetypes="csssssccsscc" />
    <path
       style="fill:#000000;fill-opacity:1;fill-rule:evenodd;stroke:#000000;stroke-width:1px;stroke-linecap:butt;stroke-linejoin:miter;stroke-opacity:1"
       d="M 231.9633,311.13815 C 234.76176,303.25925 232.37429,294.83176 242.24567,287.78497 C 242.83086,284.13368 243.10842,278.82146 241.37428,270.5315 L 250.43671,273.14566 C 251.78522,282.98635 250.9308,289.89169 249.95744,293.23114 C 244.04779,297.17449 244.51812,302.45047 243.75412,305.36756 C 243.18708,307.53261 241.49338,307.28467 241.19804,309.78777 C 240.85065,312.73194 244.29104,314.53867 244.85983,315.66936 L 231.9633,311.13815 z"
       id="path3202"
       sodipodi:nodetypes="cccccsscc" />
    <path
       style="fill:#000000;fill-opacity:1;fill-rule:evenodd;stroke:#000000;stroke-width:1px;stroke-linecap:butt;stroke-linejoin:miter;stroke-opacity:1"
       d="M 298.62442,289.96344 C 298.95764,304.13369 299.87581,310.25385 298.70561,315.93208 C 298.36021,317.60807 296.35659,317.25895 296.35489,318.98329 C 296.35324,320.65937 298.33161,320.81485 299.05466,322.38205 C 299.94211,324.30557 297.33492,326.47273 295.13887,328.39162 L 312.13093,329.96012 C 311.47396,321.95234 306.44235,326.46568 305.5834,323.08341 C 305.35406,322.18035 307.53456,321.92214 307.79811,319.95819 C 308.40213,315.45715 307.74631,306.4427 308.4711,291.88049 L 298.62442,289.96344 z"
       id="path3204"
       sodipodi:nodetypes="csssccsscc" />
    <path
       style="fill:#000000;fill-opacity:1;fill-rule:evenodd;stroke:#000000;stroke-width:1px;stroke-linecap:butt;stroke-linejoin:miter;stroke-opacity:1"
       d="M 345.5922,296.23743 C 346.42925,299.71496 346.86285,301.7609 346.86046,304.42897 C 346.85942,305.58025 344.13555,305.36937 344.4057,307.21145 C 344.89995,310.5817 345.06489,315.08241 344.37177,318.04894 C 344.07598,319.3149 342.59939,319.48147 342.1031,320.5401 C 341.49734,321.83224 342.62212,325.0132 342.15316,326.4302 C 341.46685,328.50391 341.1745,327.05904 339.0568,329.52443 L 363.97847,329.87299 C 365.20457,327.56186 364.2391,326.84004 360.84422,326.76987 C 353.58094,326.61578 355.45589,327.39423 352.98403,327.65818 C 350.34831,327.93964 350.04332,325.77364 349.90593,325.32111 C 349.59082,324.2832 353.32529,323.86483 353.37601,322.44126 C 353.52639,318.13263 353.26959,313.95324 353.13214,310.70828 C 353.06162,309.0433 355.14983,309.84237 355.28206,308.25623 C 355.38949,306.96759 354.74324,305.63073 355.13276,304.43732 C 356.16986,301.2599 357.49976,300.80818 362.23569,297.45737 L 345.5922,296.23743 z"
       id="path3206"
       sodipodi:nodetypes="csssssccssssssscc" />
    <path
       style="fill:#000000;fill-opacity:1;fill-rule:evenodd;stroke:#000000;stroke-width:1px;stroke-linecap:butt;stroke-linejoin:miter;stroke-opacity:1"
       d="M 382.7133,298.15448 C 383.01347,300.37899 382.96562,303.44733 381.09916,303.63813 C 379.35146,303.81679 381.38298,309.49747 379.7062,310.02409 C 375.88112,311.22541 378.27885,314.82929 376.75761,315.27537 C 374.73828,315.8675 376.52889,318.46292 374.20088,320.03666 C 373.49928,320.51094 374.00009,323.41111 372.74336,323.98302 C 369.37599,325.51543 369.10694,322.77293 365.37269,329.35014 L 391.34003,325.08035 C 388.12293,324.74337 383.5465,325.37734 383.32327,322.90188 C 383.73689,319.53774 385.23226,320.21653 385.99603,318.4205 C 386.59378,317.01485 386.12433,315.12296 387.55073,314.30751 C 389.10802,313.41723 388.57827,310.17256 389.0979,308.58222 C 389.48432,307.39958 390.59892,307.42181 391.04004,306.62296 C 391.80238,305.24238 391.16973,300.98164 392.18657,300.54349 C 394.55908,299.52119 401.08841,301.19688 401.53526,297.45737 L 382.7133,298.15448 z"
       id="path3208"
       sodipodi:nodetypes="cssssscccssssscc" />
    <path
       style="fill:#000000;fill-opacity:1;fill-rule:evenodd;stroke:#000000;stroke-width:1px;stroke-linecap:butt;stroke-linejoin:miter;stroke-opacity:1"
       d="M 410.72961,296.04163 C 405.15142,302.01924 406.08157,306.18461 404.43985,309.2158 C 403.27833,311.36037 401.028,311.46962 399.40485,317.37913 C 399.24933,318.43048 399.49612,318.95716 401.26787,319.31191 C 401.57909,319.37423 401.5218,320.17203 401.68361,321.17707 C 401.27478,322.75833 395.79271,321.88726 393.63502,322.48478 C 391.56819,323.05715 391.67949,323.80164 390.49696,325.25122 L 426.19757,318.48398 C 418.09797,316.89045 416.3215,317.27055 414.60734,319.45428 C 414.10548,320.09361 410.82479,319.55145 410.72961,319.10546 C 410.21909,317.11468 409.73869,315.06703 411.78565,314.29116 C 413.0266,313.82079 411.9629,311.41961 412.95859,309.48131 C 413.27088,308.87338 414.10429,308.92365 414.48119,308.2607 C 415.28517,306.84655 414.22049,305.31629 416.81427,304.64866 C 418.03067,304.33556 416.85053,301.71558 417.6711,300.55561 C 418.84121,298.90154 419.63518,301.26902 419.98277,294.93677 L 410.72961,296.04163 z"
       id="path3210"
       sodipodi:nodetypes="cscscsccscssssscc" />
    <path
       style="fill:#000000;fill-opacity:1;fill-rule:evenodd;stroke:#000000;stroke-width:1px;stroke-linecap:butt;stroke-linejoin:miter;stroke-opacity:1"
       d="M 428.75254,292.72706 C 427.95265,299.42132 425.58184,298.21627 425.60613,300.39044 C 425.62475,302.05707 425.90091,303.73826 425.50508,305.11333 C 425.05501,306.67679 422.64148,303.6054 423.50449,308.60935 C 425.38851,310.89581 426.11816,310.63108 428.0748,311.55605 C 429.53239,310.32857 429.5643,309.50292 430.61805,309.45922 C 431.44916,309.42475 433.03116,309.99958 432.89575,311.44054 C 432.33515,312.31575 430.54451,312.58804 430.30449,313.26847 C 429.1207,316.62448 426.67784,314.47995 425.72795,315.46732 C 424.82973,316.40098 425.14768,317.39482 424.60934,318.96735 C 430.71873,317.33288 436.3706,314.25541 440.28446,310.05947 C 435.82696,310.96628 434.64115,310.64816 433.65534,308.26408 C 432.97771,306.65814 433.47411,303.64803 435.78545,301.95991 C 436.71885,301.2782 436.19729,299.79077 436.68437,298.62106 C 437.05887,297.72169 438.03619,297.88701 438.38553,297.00189 C 438.91163,295.66891 438.31987,294.13788 439.32135,293.63225 C 441.74044,292.4109 441.06372,289.68215 441.32026,288.99819 L 428.75254,292.72706 z"
       id="path3212"
       sodipodi:nodetypes="cssccscsscccsssscc" />
  </g>
</svg>
